<svg width="26" height="25" viewBox="0 0 26 25" fill="none" xmlns="http://www.w3.org/2000/svg">
<path d="M0 7.89432V13.1585H1.3V21.0515H0V24.9987H20.8L24.7 25L26 24.9987V21.0515H24.7V13.1585H26V7.89432L13 0L0 7.89432ZM5.2 21.0515V13.1585H7.8V21.0515H5.2ZM11.7 21.0515V13.1585H14.3V21.0515H11.7ZM20.8 21.0515H18.2V13.1585H20.8V21.0515ZM15.6 7.89432C15.5999 8.23997 15.5326 8.58222 15.4018 8.90153C15.271 9.22084 15.0794 9.51095 14.8378 9.7553C14.5963 9.99966 14.3095 10.1935 13.994 10.3257C13.6784 10.4579 13.3402 10.5258 12.9987 10.5258C12.6572 10.5257 12.319 10.4575 12.0035 10.3252C11.688 10.1928 11.4014 9.99885 11.16 9.75437C10.9185 9.5099 10.727 9.21969 10.5964 8.90032C10.4658 8.58094 10.3986 8.23866 10.3987 7.89301C10.3989 7.19493 10.673 6.52552 11.1609 6.03202C11.6487 5.53853 12.3103 5.26139 13 5.26157C13.6897 5.26174 14.3512 5.53922 14.8387 6.03295C15.3263 6.52669 15.6002 7.19625 15.6 7.89432Z" fill="white"/>
</svg>
