<svg width="30" height="26" viewBox="0 0 30 26" fill="none" xmlns="http://www.w3.org/2000/svg">
<path fill-rule="evenodd" clip-rule="evenodd" d="M14.25 1.57325e-08C15.7246 0.000109414 17.1585 0.464975 18.333 1.3236C19.5074 2.18223 20.3577 3.38742 20.754 4.75511L20.832 5.05122L23.637 4.37667C23.842 4.32753 24.0555 4.32065 24.2635 4.35648C24.4715 4.39231 24.6692 4.47005 24.8438 4.5846C25.0185 4.69915 25.166 4.84792 25.2767 5.02119C25.3875 5.19445 25.459 5.38828 25.4865 5.59L25.5 5.77778V8.39222C26.3457 9.17299 27.0387 10.0938 27.546 11.1107L27.753 11.5556H28.5C28.8674 11.5556 29.222 11.6855 29.4966 11.9206C29.7711 12.1557 29.9465 12.4796 29.9895 12.831L30 13V17.3333C30 17.5711 29.9391 17.8052 29.8227 18.0148C29.7062 18.2244 29.5379 18.4032 29.3325 18.5351L29.1705 18.6247L27.4185 19.4697C26.7013 20.8059 25.6623 21.9574 24.3885 22.828L24 23.0793V24.5556C24 24.9093 23.8651 25.2508 23.6209 25.5152C23.3768 25.7796 23.0404 25.9485 22.6755 25.9899L22.5 26H18C17.6326 26 17.278 25.8701 17.0034 25.635C16.7289 25.3999 16.5535 25.0759 16.5105 24.7246L16.5 24.5556H15C15 24.9093 14.8651 25.2508 14.6209 25.5152C14.3768 25.7796 14.0404 25.9485 13.6755 25.9899L13.5 26H9C8.6326 26 8.27799 25.8701 8.00344 25.635C7.72889 25.3999 7.55349 25.0759 7.5105 24.7246L7.5 24.5556V23.0793C6.41637 22.4122 5.48033 21.5454 4.74565 20.5289C4.01098 19.5123 3.49216 18.3659 3.219 17.1557C2.33449 16.9022 1.55222 16.3931 0.97808 15.6973C0.403937 15.0016 0.0656472 14.1528 0.00900006 13.2658L0 13V12.2778C0.000424061 11.9096 0.146819 11.5555 0.409273 11.2878C0.671726 11.0201 1.03043 10.859 1.41209 10.8374C1.79375 10.8158 2.16957 10.9354 2.46275 11.1717C2.75593 11.408 2.94434 11.7432 2.9895 12.1088L3 12.2778V13C3 13.2138 3.048 13.4174 3.135 13.5994C3.36395 12.299 3.8747 11.0596 4.63399 9.96186C5.39329 8.8641 6.38412 7.93261 7.542 7.228C7.43557 6.3187 7.52972 5.39801 7.81828 4.52616C8.10684 3.65431 8.58331 2.85096 9.21652 2.16867C9.84973 1.48637 10.6254 0.940508 11.4928 0.566794C12.3602 0.19308 13.2997 -6.36461e-05 14.25 1.57325e-08ZM21 11.5556C20.6022 11.5556 20.2206 11.7077 19.9393 11.9786C19.658 12.2495 19.5 12.6169 19.5 13C19.5 13.3831 19.658 13.7505 19.9393 14.0214C20.2206 14.2923 20.6022 14.4444 21 14.4444C21.3978 14.4444 21.7794 14.2923 22.0607 14.0214C22.342 13.7505 22.5 13.3831 22.5 13C22.5 12.6169 22.342 12.2495 22.0607 11.9786C21.7794 11.7077 21.3978 11.5556 21 11.5556ZM14.25 2.88889C13.3414 2.88889 12.4638 3.20652 11.7801 3.78277C11.0964 4.35902 10.6533 5.15468 10.533 6.02189C11.2599 5.85933 12.0037 5.77743 12.75 5.77778H17.8155L17.9205 5.75322C17.7426 4.94283 17.2808 4.21595 16.6126 3.69446C15.9443 3.17296 15.1102 2.88854 14.25 2.88889Z" fill="white"/>
</svg>
